<?xml version="1.0" encoding="utf-8"?>
<svg viewBox="0 0 148 148" width="148px" height="148px" xmlns="http://www.w3.org/2000/svg" xmlns:bx="https://boxy-svg.com">
  <g transform="matrix(1.017665, 0, 0, 1.017658, 5.468932, 6.124266)" bx:origin="0 0">
    <path fill="#008CD4" d="M 122.621 11.392 L 34.311 -4.18 C 23.895 -6.018 13.871 1.004 12.034 11.418 L -3.538 99.729 C -5.374 110.145 1.644 120.168 12.06 122.006 L 100.37 137.578 C 110.786 139.414 120.811 132.392 122.647 121.978 L 138.219 33.667 C 140.057 23.253 133.037 13.227 122.621 11.392" style="pointer-events: none;" bx:origin="0.000003 0.000002"/>
  </g>
  <path d="M 43.912 109.175 C 33.617 100.385 27.699 87.521 27.724 73.984 C 27.724 61.207 32.908 49.644 41.272 41.28 C 66.453 16.107 109.44 27.632 118.652 62.024 C 127.862 96.419 96.388 127.884 61.997 118.664 C 55.35 116.884 49.185 113.64 43.951 109.175 L 43.912 109.175 Z M 40.193 76.836 C 45.3 72.308 48.923 66.275 58.559 66.275 C 73.977 66.275 73.977 81.694 89.394 81.694 C 99.03 81.694 102.653 75.661 107.78 71.133 C 106.432 55.161 94.782 43.76 81.028 40.785 C 72.373 38.914 62.886 40.376 54.607 46.137 C 44.656 53.057 39.154 64.759 40.174 76.836 L 40.193 76.836 Z" style="fill: rgb(255, 255, 255);" bx:origin="0.000001 -0.000003"/>
</svg>